Coordinates
version=1
nRows=38
nColumns=12
inDegrees=yes

Units are S.I. units (second, meters, Newtons, ...)
Angles are in degrees

endheader
time	SC_y	SC_z	SC_x	AC_y	AC_z	AC_x	GH_y	GH_z	GH_yy	EL_x	PS_y
       0.0              -37.24          20.45          18.35           41.9          -11.5         0.7235          109.0          4.218          89.38          83.32          105.2
  0.002037              -37.23          20.45          18.35           41.9          -11.5         0.7231          109.0          4.217          89.38          83.31          105.1
  0.004074              -37.23          20.45          18.36           41.9          -11.5         0.7227          108.9          4.217          89.38           83.3          105.1
  0.006112              -37.23          20.45          18.37           41.9          -11.5         0.7223          108.9          4.216          89.38           83.3          105.1
  0.008149              -37.22          20.44          18.38          41.91          -11.5         0.7219          108.8          4.215          89.39          83.29          105.1
   0.01019              -37.22          20.44          18.38          41.91          -11.5         0.7214          108.8          4.214          89.39          83.28          105.1
   0.01222              -37.21          20.44          18.39          41.91          -11.5          0.721          108.7          4.213          89.39          83.27          105.1
   0.01426              -37.21          20.44           18.4          41.92          -11.5         0.7204          108.6          4.213          89.39          83.26          105.1
    0.0163               -37.2          20.43          18.41          41.92          -11.5         0.7199          108.6          4.212          89.39          83.25          105.1
   0.01833               -37.2          20.43          18.42          41.92          -11.5         0.7193          108.5          4.211          89.39          83.23          105.0
   0.02037              -37.19          20.43          18.43          41.93          -11.5         0.7186          108.4          4.209          89.39          83.22          105.0
   0.02241              -37.18          20.42          18.44          41.93          -11.5          0.718          108.4          4.208           89.4          83.21          105.0
   0.02445              -37.18          20.42          18.46          41.94         -11.51         0.7172          108.3          4.207           89.4          83.19          105.0
   0.02648              -37.17          20.42          18.47          41.94         -11.51         0.7164          108.2          4.205           89.4          83.17          105.0
   0.02852              -37.16          20.41          18.49          41.95         -11.51         0.7155          108.1          4.204           89.4          83.16          104.9
   0.03056              -37.15          20.41           18.5          41.95         -11.51         0.7146          108.0          4.202           89.4          83.14          104.9
    0.0326              -37.14           20.4          18.52          41.96         -11.51         0.7136          107.8            4.2          89.41          83.11          104.9
   0.03463              -37.13           20.4          18.54          41.97         -11.51         0.7125          107.7          4.198          89.41          83.09          104.9
   0.03667              -37.12          20.39          18.56          41.98         -11.51         0.7112          107.6          4.196          89.41          83.07          104.8
   0.03871              -37.11          20.38          18.58          41.98         -11.51         0.7099          107.4          4.194          89.42          83.04          104.8
   0.04074              -37.09          20.38          18.61          41.99         -11.51         0.7084          107.3          4.191          89.42          83.01          104.8
   0.04278              -37.08          20.37          18.64           42.0         -11.51         0.7068          107.1          4.189          89.43          82.97          104.7
   0.04482              -37.06          20.36          18.67          42.01         -11.52          0.705          106.9          4.185          89.43          82.94          104.7
   0.04686              -37.04          20.35           18.7          42.03         -11.52         0.7031          106.6          4.182          89.44           82.9          104.6
   0.04889              -37.02          20.34          18.74          42.04         -11.52         0.7009          106.4          4.178          89.44          82.85          104.6
   0.05093               -37.0          20.33          18.78          42.06         -11.52         0.6984          106.1          4.174          89.45           82.8          104.5
   0.05297              -36.97          20.31          18.83          42.07         -11.52         0.6957          105.8          4.169          89.46          82.74          104.4
     0.055              -36.94           20.3          18.89          42.09         -11.53         0.6926          105.4          4.163          89.46          82.68          104.3
   0.05704              -36.91          20.28          18.95          42.12         -11.53         0.6891          105.0          4.157          89.47          82.61          104.2
   0.05908              -36.87          20.26          19.01          42.14         -11.53         0.6852          104.5           4.15          89.48          82.52          104.1
   0.06112              -36.83          20.24          19.09          42.17         -11.54         0.6806          104.0          4.142           89.5          82.43          104.0
   0.06315              -36.78          20.21          19.18           42.2         -11.54         0.6755          103.4          4.133          89.51          82.32          103.9
   0.06519              -36.72          20.18          19.29          42.24         -11.55         0.6695          102.7          4.123          89.53           82.2          103.7
   0.06723              -36.65          20.15          19.41          42.29         -11.55         0.6625          101.9           4.11          89.54          82.05          103.5
   0.06926              -36.58          20.11          19.55          42.34         -11.56         0.6544          101.0          4.096          89.57          81.88          103.3
    0.0713              -36.48          20.06          19.72           42.4         -11.57         0.6448          99.85          4.079          89.59          81.68          103.1
   0.07334              -36.38           20.0          19.92          42.47         -11.58         0.6334          98.53          4.059          89.62          81.45          102.8
   0.07538              -36.24          19.93          20.15          42.56         -11.59         0.6197          96.94          4.035          89.66          81.16          102.4
